<mxfile host="65bd71144e">
    <diagram id="QiDca3tg-MgxUgnyjGbK" name="Page-1">
        <mxGraphModel dx="929" dy="683" grid="1" gridSize="10" guides="1" tooltips="1" connect="1" arrows="1" fold="1" page="1" pageScale="1" pageWidth="850" pageHeight="1100" math="0" shadow="0">
            <root>
                <mxCell id="0"/>
                <mxCell id="1" parent="0"/>
                <mxCell id="2" value="" style="html=1;shadow=0;dashed=0;fontSize=16;fontColor=#181819;align=left;spacing=15;fillColor=#512da8;strokeWidth=1;strokeColor=#FFFFFF;" vertex="1" parent="1">
                    <mxGeometry width="850" height="60" as="geometry"/>
                </mxCell>
                <mxCell id="3" value="Nhân viên" style="fillColor=none;strokeColor=none;fontSize=14;align=center;fontColor=#FFFFFF;" vertex="1" parent="2">
                    <mxGeometry width="70" height="40" relative="1" as="geometry">
                        <mxPoint x="140" y="10" as="offset"/>
                    </mxGeometry>
                </mxCell>
                <mxCell id="4" value="Phòng ban" style="fillColor=none;strokeColor=none;fontSize=14;align=center;fontColor=#FFFFFF;" vertex="1" parent="2">
                    <mxGeometry width="50" height="40" relative="1" as="geometry">
                        <mxPoint x="240" y="10" as="offset"/>
                    </mxGeometry>
                </mxCell>
                <mxCell id="5" value="Bảng lương" style="fillColor=none;strokeColor=none;fontSize=14;align=center;fontColor=#FFFFFF;" vertex="1" parent="2">
                    <mxGeometry width="80" height="40" relative="1" as="geometry">
                        <mxPoint x="330" y="10" as="offset"/>
                    </mxGeometry>
                </mxCell>
                <mxCell id="6" value="Ứng dụng quản lý nhân sự V1.0" style="fillColor=none;strokeColor=none;fontSize=17;align=center;fontColor=#FFFFFF;spacingLeft=1;strokeWidth=1;" vertex="1" parent="2">
                    <mxGeometry width="250" height="40" relative="1" as="geometry">
                        <mxPoint x="540" y="10" as="offset"/>
                    </mxGeometry>
                </mxCell>
                <mxCell id="8" value="" style="rounded=0;whiteSpace=wrap;html=1;fillColor=#ededed;shadow=0;" vertex="1" parent="1">
                    <mxGeometry x="60" y="60" width="730" height="520" as="geometry"/>
                </mxCell>
                <mxCell id="9" value="LOGO" style="fillColor=none;strokeColor=none;fontSize=14;align=center;fontColor=#FFFFFF;" vertex="1" parent="1">
                    <mxGeometry x="60" y="10" width="70" height="40" as="geometry"/>
                </mxCell>
                <mxCell id="10" value="" style="edgeStyle=none;html=1;" edge="1" parent="1">
                    <mxGeometry relative="1" as="geometry">
                        <mxPoint x="125" y="296.9999999999999" as="sourcePoint"/>
                        <mxPoint x="125" y="357" as="targetPoint"/>
                    </mxGeometry>
                </mxCell>
                <mxCell id="11" value="" style="edgeStyle=none;html=1;" edge="1" parent="1">
                    <mxGeometry relative="1" as="geometry">
                        <mxPoint x="245" y="447" as="sourcePoint"/>
                        <mxPoint x="245" y="527" as="targetPoint"/>
                    </mxGeometry>
                </mxCell>
                <mxCell id="12" value="" style="rounded=0;whiteSpace=wrap;html=1;shadow=0;glass=0;sketch=0;strokeColor=#ededed;strokeWidth=0;fillColor=#FFFFFF;" vertex="1" parent="1">
                    <mxGeometry y="60" width="60" height="520" as="geometry"/>
                </mxCell>
                <mxCell id="13" value="" style="rounded=0;whiteSpace=wrap;html=1;shadow=0;glass=0;sketch=0;strokeColor=#ededed;strokeWidth=0;fillColor=#FFFFFF;" vertex="1" parent="1">
                    <mxGeometry x="790" y="60" width="60" height="520" as="geometry"/>
                </mxCell>
                <mxCell id="26" value="" style="line;strokeWidth=1;html=1;perimeter=backbonePerimeter;points=[];outlineConnect=0;strokeColor=#000000;" vertex="1" parent="1">
                    <mxGeometry x="70" y="129" width="710" height="10" as="geometry"/>
                </mxCell>
                <mxCell id="27" value="&lt;font color=&quot;#0085fc&quot;&gt;Nhân viên&lt;/font&gt;/ Tên nhân viên" style="html=1;shadow=0;dashed=0;shape=mxgraph.bootstrap.rrect;rSize=5;strokeColor=none;strokeWidth=1;fillColor=#E9ECEF;fontColor=#6C757D;whiteSpace=wrap;align=left;verticalAlign=middle;spacingLeft=0;fontStyle=0;fontSize=14;spacing=10;" vertex="1" parent="1">
                    <mxGeometry x="60" y="60" width="730" height="70" as="geometry"/>
                </mxCell>
                <mxCell id="28" value="&lt;font color=&quot;#000000&quot; style=&quot;font-size: 20px&quot;&gt;Thông tin cơ bản&lt;/font&gt;" style="text;html=1;strokeColor=none;fillColor=none;align=center;verticalAlign=middle;whiteSpace=wrap;rounded=0;" vertex="1" parent="1">
                    <mxGeometry x="60" y="150" width="180" height="50" as="geometry"/>
                </mxCell>
                <mxCell id="48" value="Username" style="html=1;shadow=0;dashed=0;shape=mxgraph.bootstrap.rrect;rSize=5;strokeColor=#CED4DA;html=1;whiteSpace=wrap;fillColor=#FFFFFF;fontColor=#7D868C;align=left;spacing=15;spacingLeft=40;fontSize=14;" vertex="1" parent="1">
                    <mxGeometry x="320" y="210" width="460" height="40" as="geometry"/>
                </mxCell>
                <mxCell id="49" value="Họ vả tên" style="html=1;shadow=0;dashed=0;shape=mxgraph.bootstrap.leftButton;strokeColor=inherit;gradientColor=inherit;fontColor=inherit;fillColor=#E9ECEF;rSize=5;perimeter=none;whiteSpace=wrap;resizeHeight=1;fontSize=14;" vertex="1" parent="48">
                    <mxGeometry width="187.75510204081633" height="40" as="geometry"/>
                </mxCell>
                <mxCell id="60" value="Username" style="html=1;shadow=0;dashed=0;shape=mxgraph.bootstrap.rrect;rSize=5;strokeColor=#CED4DA;html=1;whiteSpace=wrap;fillColor=#FFFFFF;fontColor=#7D868C;align=left;spacing=15;spacingLeft=40;fontSize=14;" vertex="1" parent="1">
                    <mxGeometry x="320" y="265" width="460" height="40" as="geometry"/>
                </mxCell>
                <mxCell id="61" value="Vị trí" style="html=1;shadow=0;dashed=0;shape=mxgraph.bootstrap.leftButton;strokeColor=inherit;gradientColor=inherit;fontColor=inherit;fillColor=#E9ECEF;rSize=5;perimeter=none;whiteSpace=wrap;resizeHeight=1;fontSize=14;" vertex="1" parent="60">
                    <mxGeometry width="187.75510204081633" height="40" as="geometry"/>
                </mxCell>
                <mxCell id="77" value="&lt;font color=&quot;#000000&quot; style=&quot;font-size: 14px&quot;&gt;Quản lý&lt;/font&gt;" style="text;html=1;strokeColor=none;fillColor=none;align=center;verticalAlign=middle;whiteSpace=wrap;rounded=0;" vertex="1" parent="60">
                    <mxGeometry x="187.76" width="270" height="40" as="geometry"/>
                </mxCell>
                <mxCell id="62" value="Username" style="html=1;shadow=0;dashed=0;shape=mxgraph.bootstrap.rrect;rSize=5;strokeColor=#CED4DA;html=1;whiteSpace=wrap;fillColor=#FFFFFF;fontColor=#7D868C;align=left;spacing=15;spacingLeft=40;fontSize=14;" vertex="1" parent="1">
                    <mxGeometry x="320" y="320" width="460" height="40" as="geometry"/>
                </mxCell>
                <mxCell id="63" value="Ngày sinh" style="html=1;shadow=0;dashed=0;shape=mxgraph.bootstrap.leftButton;strokeColor=inherit;gradientColor=inherit;fontColor=inherit;fillColor=#E9ECEF;rSize=5;perimeter=none;whiteSpace=wrap;resizeHeight=1;fontSize=14;" vertex="1" parent="62">
                    <mxGeometry width="187.75510204081633" height="40" as="geometry"/>
                </mxCell>
                <mxCell id="66" value="Username" style="html=1;shadow=0;dashed=0;shape=mxgraph.bootstrap.rrect;rSize=5;strokeColor=#CED4DA;html=1;whiteSpace=wrap;fillColor=#FFFFFF;fontColor=#7D868C;align=left;spacing=15;spacingLeft=40;fontSize=14;" vertex="1" parent="1">
                    <mxGeometry x="320" y="370" width="460" height="40" as="geometry"/>
                </mxCell>
                <mxCell id="67" value="Ngày vào công ty" style="html=1;shadow=0;dashed=0;shape=mxgraph.bootstrap.leftButton;strokeColor=inherit;gradientColor=inherit;fontColor=inherit;fillColor=#E9ECEF;rSize=5;perimeter=none;whiteSpace=wrap;resizeHeight=1;fontSize=14;" vertex="1" parent="66">
                    <mxGeometry width="187.75510204081633" height="40" as="geometry"/>
                </mxCell>
                <mxCell id="68" value="Username" style="html=1;shadow=0;dashed=0;shape=mxgraph.bootstrap.rrect;rSize=5;strokeColor=#CED4DA;html=1;whiteSpace=wrap;fillColor=#FFFFFF;fontColor=#7D868C;align=left;spacing=15;spacingLeft=40;fontSize=14;" vertex="1" parent="1">
                    <mxGeometry x="320" y="425" width="460" height="40" as="geometry"/>
                </mxCell>
                <mxCell id="69" value="Phòng ban" style="html=1;shadow=0;dashed=0;shape=mxgraph.bootstrap.leftButton;strokeColor=inherit;gradientColor=inherit;fontColor=inherit;fillColor=#E9ECEF;rSize=5;perimeter=none;whiteSpace=wrap;resizeHeight=1;fontSize=14;" vertex="1" parent="68">
                    <mxGeometry width="187.75510204081633" height="40" as="geometry"/>
                </mxCell>
                <mxCell id="70" value="Username" style="html=1;shadow=0;dashed=0;shape=mxgraph.bootstrap.rrect;rSize=5;strokeColor=#CED4DA;html=1;whiteSpace=wrap;fillColor=#FFFFFF;fontColor=#7D868C;align=left;spacing=15;spacingLeft=40;fontSize=14;" vertex="1" parent="1">
                    <mxGeometry x="320" y="480" width="460" height="40" as="geometry"/>
                </mxCell>
                <mxCell id="71" value="Số ngày nghỉ còn lại" style="html=1;shadow=0;dashed=0;shape=mxgraph.bootstrap.leftButton;strokeColor=inherit;gradientColor=inherit;fontColor=inherit;fillColor=#E9ECEF;rSize=5;perimeter=none;whiteSpace=wrap;resizeHeight=1;fontSize=14;" vertex="1" parent="70">
                    <mxGeometry width="187.75510204081633" height="40" as="geometry"/>
                </mxCell>
                <mxCell id="72" value="Username" style="html=1;shadow=0;dashed=0;shape=mxgraph.bootstrap.rrect;rSize=5;strokeColor=#CED4DA;html=1;whiteSpace=wrap;fillColor=#FFFFFF;fontColor=#7D868C;align=left;spacing=15;spacingLeft=40;fontSize=14;" vertex="1" parent="1">
                    <mxGeometry x="320" y="530" width="460" height="40" as="geometry"/>
                </mxCell>
                <mxCell id="73" value="Số ngày đã làm thêm" style="html=1;shadow=0;dashed=0;shape=mxgraph.bootstrap.leftButton;strokeColor=inherit;gradientColor=inherit;fontColor=inherit;fillColor=#E9ECEF;rSize=5;perimeter=none;whiteSpace=wrap;resizeHeight=1;fontSize=14;" vertex="1" parent="72">
                    <mxGeometry width="187.75510204081633" height="40" as="geometry"/>
                </mxCell>
                <mxCell id="74" value="&lt;font style=&quot;font-size: 16px&quot;&gt;IMAGE&lt;/font&gt;" style="rounded=1;whiteSpace=wrap;html=1;strokeColor=#314354;fontColor=#ffffff;fillColor=#485561;" vertex="1" parent="1">
                    <mxGeometry x="70" y="230" width="240" height="320" as="geometry"/>
                </mxCell>
                <mxCell id="76" value="&lt;font color=&quot;#000000&quot; style=&quot;font-size: 14px&quot;&gt;Nguyễn Văn A&lt;/font&gt;" style="text;html=1;strokeColor=none;fillColor=none;align=center;verticalAlign=middle;whiteSpace=wrap;rounded=0;" vertex="1" parent="1">
                    <mxGeometry x="510" y="210" width="270" height="40" as="geometry"/>
                </mxCell>
                <mxCell id="79" value="&lt;font color=&quot;#000000&quot; style=&quot;font-size: 14px&quot;&gt;01/01/2000&lt;/font&gt;" style="text;html=1;strokeColor=none;fillColor=none;align=center;verticalAlign=middle;whiteSpace=wrap;rounded=0;" vertex="1" parent="1">
                    <mxGeometry x="510" y="320" width="270" height="40" as="geometry"/>
                </mxCell>
                <mxCell id="80" value="&lt;font color=&quot;#000000&quot; style=&quot;font-size: 14px&quot;&gt;30/04/2020&lt;/font&gt;" style="text;html=1;strokeColor=none;fillColor=none;align=center;verticalAlign=middle;whiteSpace=wrap;rounded=0;" vertex="1" parent="1">
                    <mxGeometry x="510" y="370" width="270" height="40" as="geometry"/>
                </mxCell>
                <mxCell id="81" value="&lt;font color=&quot;#000000&quot; style=&quot;font-size: 14px&quot;&gt;IT&lt;/font&gt;" style="text;html=1;strokeColor=none;fillColor=none;align=center;verticalAlign=middle;whiteSpace=wrap;rounded=0;" vertex="1" parent="1">
                    <mxGeometry x="510" y="425" width="270" height="40" as="geometry"/>
                </mxCell>
                <mxCell id="82" value="&lt;font color=&quot;#000000&quot; style=&quot;font-size: 14px&quot;&gt;3&lt;/font&gt;" style="text;html=1;strokeColor=none;fillColor=none;align=center;verticalAlign=middle;whiteSpace=wrap;rounded=0;" vertex="1" parent="1">
                    <mxGeometry x="510" y="480" width="270" height="40" as="geometry"/>
                </mxCell>
                <mxCell id="83" value="&lt;font color=&quot;#000000&quot; style=&quot;font-size: 14px&quot;&gt;5&lt;/font&gt;" style="text;html=1;strokeColor=none;fillColor=none;align=center;verticalAlign=middle;whiteSpace=wrap;rounded=0;" vertex="1" parent="1">
                    <mxGeometry x="510" y="530" width="270" height="40" as="geometry"/>
                </mxCell>
                <mxCell id="84" value="" style="rounded=0;whiteSpace=wrap;html=1;fontSize=17;strokeWidth=1;fontColor=#ffffff;fillColor=#d1c4e9;strokeColor=#FFFFFF;" vertex="1" parent="1">
                    <mxGeometry y="580" width="850" height="200" as="geometry"/>
                </mxCell>
                <mxCell id="85" value="" style="rounded=0;whiteSpace=wrap;html=1;fontSize=17;fontColor=#FFFFFF;strokeWidth=1;fillColor=#D1C4E9;strokeColor=#D1C4E9;" vertex="1" parent="1">
                    <mxGeometry x="60" y="581" width="120" height="199" as="geometry"/>
                </mxCell>
                <mxCell id="86" value="&lt;div style=&quot;text-align: left&quot;&gt;&lt;br&gt;&lt;/div&gt;&lt;br&gt;&lt;br&gt;" style="rounded=0;whiteSpace=wrap;html=1;fontSize=17;fontColor=#FFFFFF;strokeWidth=1;fillColor=#d1c4e9;strokeColor=#D1C4E9;" vertex="1" parent="1">
                    <mxGeometry x="190" y="580" width="380" height="199" as="geometry"/>
                </mxCell>
                <mxCell id="87" value="" style="rounded=0;whiteSpace=wrap;html=1;fontSize=17;fontColor=#FFFFFF;strokeWidth=1;fillColor=#d1c4e9;strokeColor=#D1C4E9;" vertex="1" parent="1">
                    <mxGeometry x="580" y="581" width="210" height="199" as="geometry"/>
                </mxCell>
                <mxCell id="88" value="&lt;font style=&quot;font-size: 24px&quot;&gt;Link&lt;/font&gt;" style="text;html=1;strokeColor=none;fillColor=none;align=center;verticalAlign=middle;whiteSpace=wrap;rounded=0;fontSize=17;fontColor=#FFFFFF;" vertex="1" parent="1">
                    <mxGeometry x="60" y="600" width="60" height="40" as="geometry"/>
                </mxCell>
                <mxCell id="89" value="&lt;font style=&quot;font-size: 24px&quot;&gt;Our Address&lt;/font&gt;" style="text;html=1;strokeColor=none;fillColor=none;align=center;verticalAlign=middle;whiteSpace=wrap;rounded=0;fontSize=17;fontColor=#FFFFFF;" vertex="1" parent="1">
                    <mxGeometry x="190" y="599" width="160" height="40" as="geometry"/>
                </mxCell>
                <mxCell id="90" value="&lt;font style=&quot;font-size: 24px&quot;&gt;Social - Icon&lt;/font&gt;" style="text;html=1;strokeColor=none;fillColor=none;align=center;verticalAlign=middle;whiteSpace=wrap;rounded=0;fontSize=17;fontColor=#FFFFFF;" vertex="1" parent="1">
                    <mxGeometry x="605" y="660" width="160" height="40" as="geometry"/>
                </mxCell>
                <mxCell id="91" value="&lt;span style=&quot;color: rgb(15 , 15 , 15) ; font-family: &amp;#34;times new roman&amp;#34; , &amp;#34;times&amp;#34; , serif ; font-size: 16px ; background-color: rgb(209 , 196 , 233)&quot;&gt;121, Clear Water Bay Road&lt;/span&gt;&lt;br style=&quot;box-sizing: border-box ; margin: 0px ; padding: 0px ; color: rgb(15 , 15 , 15) ; font-family: &amp;#34;times new roman&amp;#34; , &amp;#34;times&amp;#34; , serif ; font-size: 16px ; background-color: rgb(209 , 196 , 233)&quot;&gt;&lt;span style=&quot;color: rgb(15 , 15 , 15) ; font-family: &amp;#34;times new roman&amp;#34; , &amp;#34;times&amp;#34; , serif ; font-size: 16px ; background-color: rgb(209 , 196 , 233)&quot;&gt;Clear Water Bay, Kowloon&lt;/span&gt;&lt;br style=&quot;box-sizing: border-box ; margin: 0px ; padding: 0px ; color: rgb(15 , 15 , 15) ; font-family: &amp;#34;times new roman&amp;#34; , &amp;#34;times&amp;#34; , serif ; font-size: 16px ; background-color: rgb(209 , 196 , 233)&quot;&gt;&lt;span style=&quot;color: rgb(15 , 15 , 15) ; font-family: &amp;#34;times new roman&amp;#34; , &amp;#34;times&amp;#34; , serif ; font-size: 16px ; background-color: rgb(209 , 196 , 233)&quot;&gt;HONG KONG&lt;/span&gt;" style="text;html=1;strokeColor=none;fillColor=none;align=left;verticalAlign=middle;whiteSpace=wrap;rounded=0;fontSize=17;fontColor=#FFFFFF;" vertex="1" parent="1">
                    <mxGeometry x="205" y="669" width="120" height="40" as="geometry"/>
                </mxCell>
                <mxCell id="92" value="&lt;font style=&quot;font-size: 14px&quot; color=&quot;#0000ff&quot;&gt;Nhân viên&lt;/font&gt;" style="text;html=1;strokeColor=none;fillColor=none;align=left;verticalAlign=middle;whiteSpace=wrap;rounded=0;fontSize=17;fontColor=#FFFFFF;" vertex="1" parent="1">
                    <mxGeometry x="60" y="640" width="90" height="40" as="geometry"/>
                </mxCell>
                <mxCell id="93" value="&lt;font style=&quot;font-size: 14px&quot; color=&quot;#0000ff&quot;&gt;Phòng ban&lt;/font&gt;" style="text;html=1;strokeColor=none;fillColor=none;align=left;verticalAlign=middle;whiteSpace=wrap;rounded=0;fontSize=17;fontColor=#FFFFFF;" vertex="1" parent="1">
                    <mxGeometry x="60" y="670" width="110" height="40" as="geometry"/>
                </mxCell>
                <mxCell id="94" value="&lt;font style=&quot;font-size: 14px&quot; color=&quot;#0000ff&quot;&gt;Bảng lương&lt;/font&gt;" style="text;html=1;strokeColor=none;fillColor=none;align=left;verticalAlign=middle;whiteSpace=wrap;rounded=0;fontSize=17;fontColor=#FFFFFF;" vertex="1" parent="1">
                    <mxGeometry x="60" y="700" width="100" height="40" as="geometry"/>
                </mxCell>
            </root>
        </mxGraphModel>
    </diagram>
</mxfile>